<svg width="179" height="70" viewBox="0 0 179 70" fill="none" xmlns="http://www.w3.org/2000/svg">
<path d="M31.9037 69.65C30.029 69.65 28.2264 69.1552 26.5681 68.2363L5.51387 56.2905C2.19711 54.4527 0.178223 50.9891 0.178223 47.2429V23.4219C0.178223 19.6756 2.19711 16.212 5.51387 14.3742L26.5681 2.42836C29.8848 0.590547 33.9226 0.590547 37.2393 2.42836L58.2935 14.3742C61.6102 16.212 63.6291 19.6756 63.6291 23.4219V47.2429C63.6291 50.9891 61.6102 54.4527 58.2935 56.2905L37.2393 68.2363C35.5809 69.1552 33.7784 69.65 31.9037 69.65ZM31.9037 2.21631C30.6059 2.21631 29.3079 2.56973 28.0823 3.2059L5.44176 16.0706C3.13446 17.4136 1.62029 19.8876 1.62029 22.5029V48.1617C1.62029 50.8477 3.06236 53.2511 5.44176 54.5941L28.0823 67.388C30.3895 68.731 33.3457 68.731 35.653 67.388L58.2935 54.5941C60.6008 53.2511 62.115 50.777 62.115 48.1617V22.5029C62.115 19.8169 60.6729 17.4136 58.2935 16.0706L35.7251 3.2059C34.5715 2.56973 33.2015 2.21631 31.9037 2.21631Z" fill="#FEC882"/>
<path d="M92.4889 32.0263H88.5155L81.8701 22.097V32.0263H77.8967V15.8512H81.8701L88.5155 25.8719V15.8512H92.4889V32.0263Z" fill="#FFFAF3"/>
<path d="M100.159 19.0999C101.151 19.0999 102.002 19.3211 102.715 19.7634C103.428 20.2056 103.954 20.8082 104.295 21.5708V19.2601H108.245V32.0263H104.295V29.7156C103.954 30.4781 103.428 31.0806 102.715 31.523C102.002 31.9652 101.151 32.1864 100.159 32.1864C99.0902 32.1864 98.1298 31.9271 97.2778 31.4084C96.4413 30.8746 95.7752 30.112 95.2795 29.1207C94.7993 28.1292 94.5591 26.97 94.5591 25.6431C94.5591 24.3009 94.7993 23.1417 95.2795 22.1656C95.7752 21.1742 96.4413 20.4193 97.2778 19.9006C98.1298 19.3668 99.0902 19.0999 100.159 19.0999ZM101.437 22.5316C100.585 22.5316 99.8957 22.8061 99.369 23.3554C98.8578 23.9044 98.6022 24.667 98.6022 25.6431C98.6022 26.6193 98.8578 27.3819 99.369 27.931C99.8957 28.4801 100.585 28.7546 101.437 28.7546C102.274 28.7546 102.955 28.4725 103.482 27.9082C104.024 27.3438 104.295 26.5888 104.295 25.6431C104.295 24.6823 104.024 23.9273 103.482 23.3782C102.955 22.8138 102.274 22.5316 101.437 22.5316Z" fill="#FFFAF3"/>
<path d="M118.324 28.663V32.0263H116.534C115.016 32.0263 113.831 31.6602 112.979 30.9281C112.143 30.1806 111.724 28.9528 111.724 27.2447V22.5546H109.982V19.2601H111.724V16.1258H115.698V19.2601H118.3V22.5546H115.698V27.3133C115.698 27.8166 115.798 28.1674 116 28.3657C116.217 28.5639 116.573 28.663 117.069 28.663H118.324Z" fill="#FFFAF3"/>
<path d="M120.185 15.6681C120.185 15.0732 120.402 14.5852 120.836 14.204C121.269 13.8073 121.843 13.6091 122.555 13.6091C123.268 13.6091 123.841 13.8073 124.275 14.204C124.708 14.5852 124.925 15.0732 124.925 15.6681C124.925 16.2477 124.708 16.7357 124.275 17.1324C123.841 17.5137 123.268 17.7043 122.555 17.7043C121.843 17.7043 121.269 17.5137 120.836 17.1324C120.402 16.7357 120.185 16.2477 120.185 15.6681ZM124.53 19.2601V32.0263H120.557V19.2601H124.53Z" fill="#FFFAF3"/>
<path d="M133.338 19.0999C134.624 19.0999 135.77 19.3668 136.777 19.9006C137.8 20.4193 138.597 21.1742 139.17 22.1656C139.759 23.157 140.053 24.3162 140.053 25.6431C140.053 26.97 139.759 28.1292 139.17 29.1207C138.597 30.112 137.8 30.8746 136.777 31.4084C135.77 31.9271 134.624 32.1864 133.338 32.1864C132.052 32.1864 130.898 31.9271 129.876 31.4084C128.854 30.8746 128.048 30.112 127.459 29.1207C126.886 28.1292 126.6 26.97 126.6 25.6431C126.6 24.3162 126.886 23.157 127.459 22.1656C128.048 21.1742 128.854 20.4193 129.876 19.9006C130.898 19.3668 132.052 19.0999 133.338 19.0999ZM133.338 22.486C132.579 22.486 131.936 22.7605 131.409 23.3096C130.898 23.8434 130.643 24.6212 130.643 25.6431C130.643 26.6651 130.898 27.4429 131.409 27.9768C131.936 28.5106 132.579 28.7774 133.338 28.7774C134.097 28.7774 134.732 28.5106 135.243 27.9768C135.755 27.4429 136.01 26.6651 136.01 25.6431C136.01 24.6212 135.755 23.8434 135.243 23.3096C134.732 22.7605 134.097 22.486 133.338 22.486Z" fill="#FFFAF3"/>
<path d="M150.339 19.1227C151.826 19.1227 153.004 19.6109 153.871 20.587C154.755 21.5631 155.196 22.9054 155.196 24.6135V32.0263H151.223V25.0712C151.223 24.2171 150.99 23.5536 150.525 23.0807C150.075 22.5926 149.472 22.3486 148.713 22.3486C147.908 22.3486 147.265 22.6003 146.784 23.1036C146.319 23.6069 146.087 24.3239 146.087 25.2542V32.0263H142.114V19.2601H146.087V21.5936C146.459 20.831 147.009 20.2286 147.737 19.7862C148.48 19.3439 149.348 19.1227 150.339 19.1227Z" fill="#FFFAF3"/>
<path d="M162.742 19.0999C163.734 19.0999 164.585 19.3211 165.299 19.7634C166.01 20.2056 166.537 20.8082 166.879 21.5708V19.2601H170.828V32.0263H166.879V29.7156C166.537 30.4781 166.01 31.0806 165.299 31.523C164.585 31.9652 163.734 32.1864 162.742 32.1864C161.673 32.1864 160.712 31.9271 159.861 31.4084C159.024 30.8746 158.358 30.112 157.862 29.1207C157.382 28.1292 157.142 26.97 157.142 25.6431C157.142 24.3009 157.382 23.1417 157.862 22.1656C158.358 21.1742 159.024 20.4193 159.861 19.9006C160.712 19.3668 161.673 19.0999 162.742 19.0999ZM164.02 22.5316C163.167 22.5316 162.478 22.8061 161.953 23.3554C161.441 23.9044 161.186 24.667 161.186 25.6431C161.186 26.6193 161.441 27.3819 161.953 27.931C162.478 28.4801 163.167 28.7546 164.02 28.7546C164.856 28.7546 165.538 28.4725 166.065 27.9082C166.607 27.3438 166.879 26.5888 166.879 25.6431C166.879 24.6823 166.607 23.9273 166.065 23.3782C165.538 22.8138 164.856 22.5316 164.02 22.5316Z" fill="#FFFAF3"/>
<path d="M177.537 15.0962V32.0263H173.564V15.0962H177.537Z" fill="#FFFAF3"/>
<path d="M83.822 42.1385C85.4795 42.1385 86.8504 42.5732 87.9348 43.4426C89.0191 44.2967 89.6929 45.4635 89.9564 46.943H87.1448C86.9899 46.1499 86.6103 45.5322 86.0062 45.0898C85.4175 44.6323 84.674 44.4035 83.7755 44.4035C82.7531 44.4035 81.9011 44.7619 81.2195 45.4787C80.538 46.1804 80.1972 47.2175 80.1972 48.5902C80.1972 49.9629 80.538 51.0077 81.2195 51.7245C81.9011 52.4415 82.7531 52.7999 83.7755 52.7999C84.674 52.7999 85.4175 52.5711 86.0062 52.1135C86.6103 51.6559 86.9899 51.0306 87.1448 50.2375H89.9564C89.6929 51.717 89.0191 52.8914 87.9348 53.7607C86.8504 54.6301 85.4795 55.0648 83.822 55.0648C82.5827 55.0648 81.4829 54.8055 80.5225 54.287C79.5775 53.7684 78.834 53.0211 78.2918 52.0449C77.7496 51.0688 77.4785 49.9171 77.4785 48.5902C77.4785 47.2786 77.7496 46.1346 78.2918 45.1584C78.834 44.1823 79.5775 43.435 80.5225 42.9163C81.4829 42.3977 82.5827 42.1385 83.822 42.1385Z" fill="#FFFAF3"/>
<path d="M97.6505 42.1385C98.8123 42.1385 99.8037 42.4207 100.625 42.985C101.446 43.5494 102.027 44.2967 102.368 45.2271V42.2986H105.016V54.9046H102.368V51.9763C102.027 52.9066 101.446 53.654 100.625 54.2184C99.8037 54.7827 98.8123 55.0648 97.6505 55.0648C96.5352 55.0648 95.5361 54.8055 94.6532 54.287C93.7857 53.7684 93.1041 53.0211 92.6084 52.0449C92.1127 51.0688 91.8647 49.9171 91.8647 48.5902C91.8647 47.2786 92.1127 46.1346 92.6084 45.1584C93.1041 44.1823 93.7857 43.435 94.6532 42.9163C95.5361 42.3977 96.5352 42.1385 97.6505 42.1385ZM98.4639 44.4263C97.2866 44.4263 96.3416 44.8 95.6291 45.5473C94.932 46.2795 94.5834 47.2938 94.5834 48.5902C94.5834 49.8866 94.932 50.9086 95.6291 51.6559C96.3416 52.388 97.2866 52.7541 98.4639 52.7541C99.2074 52.7541 99.8735 52.5864 100.462 52.2508C101.051 51.9 101.516 51.4119 101.856 50.7865C102.197 50.1612 102.368 49.4291 102.368 48.5902C102.368 47.7666 102.197 47.0421 101.856 46.4167C101.516 45.7762 101.051 45.288 100.462 44.9526C99.8735 44.6018 99.2074 44.4263 98.4639 44.4263Z" fill="#FFFAF3"/>
<path d="M112.401 42.1385C113.903 42.1385 115.104 42.5198 116.002 43.2824C116.916 44.0297 117.474 45.0365 117.675 46.3023H115.166C115.057 45.6161 114.755 45.067 114.26 44.6551C113.779 44.2281 113.137 44.0146 112.331 44.0146C111.665 44.0146 111.146 44.1746 110.774 44.4949C110.418 44.8 110.24 45.2194 110.24 45.7533C110.24 46.1499 110.371 46.4702 110.635 46.7142C110.898 46.9582 111.223 47.1489 111.611 47.2861C112.013 47.4235 112.579 47.5759 113.307 47.7438C114.267 47.9573 115.042 48.1785 115.631 48.4072C116.235 48.636 116.746 49.0021 117.164 49.5054C117.598 49.9934 117.815 50.6646 117.815 51.5186C117.815 52.5711 117.404 53.4253 116.583 54.081C115.778 54.7369 114.686 55.0648 113.307 55.0648C111.711 55.0648 110.418 54.6987 109.427 53.9666C108.451 53.2346 107.862 52.2126 107.661 50.9009H110.24C110.317 51.5873 110.627 52.144 111.169 52.5711C111.711 52.9981 112.424 53.2116 113.307 53.2116C113.942 53.2116 114.438 53.0515 114.794 52.7313C115.166 52.3957 115.352 51.9763 115.352 51.473C115.352 51.0306 115.212 50.6797 114.934 50.4204C114.655 50.1612 114.306 49.9629 113.888 49.8257C113.47 49.6731 112.896 49.5207 112.168 49.3681C111.239 49.1546 110.48 48.9411 109.891 48.7276C109.318 48.5139 108.822 48.1708 108.404 47.698C108.001 47.2098 107.8 46.5541 107.8 45.7304C107.8 44.6628 108.203 43.801 109.008 43.1452C109.829 42.474 110.96 42.1385 112.401 42.1385Z" fill="#FFFAF3"/>
<path d="M120.1 38.638C120.1 38.1958 120.255 37.8297 120.565 37.5399C120.874 37.2501 121.285 37.1052 121.796 37.1052C122.307 37.1052 122.718 37.2501 123.028 37.5399C123.353 37.8297 123.516 38.1958 123.516 38.638C123.516 39.0804 123.353 39.4388 123.028 39.7134C122.718 39.9879 122.307 40.1253 121.796 40.1253C121.285 40.1253 120.874 39.9879 120.565 39.7134C120.255 39.4388 120.1 39.0804 120.1 38.638ZM123.12 42.2986V54.9046H120.472V42.2986H123.12Z" fill="#FFFAF3"/>
<path d="M133.482 42.0927C134.97 42.0927 136.162 42.5656 137.061 43.5112C137.959 44.4569 138.408 45.8067 138.408 47.5607V54.9046H135.76V47.8352C135.76 46.7065 135.465 45.8371 134.877 45.2271C134.288 44.6018 133.482 44.2891 132.46 44.2891C131.407 44.2891 130.562 44.6246 129.927 45.2957C129.292 45.9516 128.975 46.9202 128.975 48.2013V54.9046H126.326V42.2986H128.975V45.067C129.315 44.1213 129.889 43.3892 130.694 42.8707C131.5 42.3521 132.429 42.0927 133.482 42.0927Z" fill="#FFFAF3"/>
<path d="M147.362 42.1385C148.601 42.1385 149.716 42.3977 150.708 42.9163C151.699 43.435 152.474 44.1823 153.031 45.1584C153.589 46.1346 153.868 47.2786 153.868 48.5902C153.868 49.9171 153.589 51.0688 153.031 52.0449C152.474 53.0211 151.699 53.7684 150.708 54.287C149.716 54.8055 148.601 55.0648 147.362 55.0648C146.123 55.0648 145.007 54.8055 144.016 54.287C143.041 53.7684 142.265 53.0211 141.692 52.0449C141.135 51.0535 140.856 49.9019 140.856 48.5902C140.856 47.2786 141.135 46.1346 141.692 45.1584C142.265 44.1823 143.041 43.435 144.016 42.9163C145.007 42.3977 146.123 42.1385 147.362 42.1385ZM147.362 44.4035C146.68 44.4035 146.053 44.556 145.48 44.861C144.907 45.1661 144.442 45.6389 144.085 46.2795C143.745 46.9049 143.575 47.675 143.575 48.5902C143.575 49.5207 143.745 50.2985 144.085 50.9239C144.442 51.5491 144.907 52.0143 145.48 52.3194C146.053 52.6245 146.68 52.7769 147.362 52.7769C148.043 52.7769 148.671 52.6245 149.244 52.3194C149.817 52.0143 150.274 51.5491 150.615 50.9239C150.972 50.2985 151.149 49.5207 151.149 48.5902C151.149 47.675 150.972 46.9049 150.615 46.2795C150.274 45.6389 149.817 45.1661 149.244 44.861C148.671 44.556 148.043 44.4035 147.362 44.4035Z" fill="#FFFAF3"/>
<path fill-rule="evenodd" clip-rule="evenodd" d="M36.6046 8.98034L53.693 18.6642C56.2888 20.1487 57.9472 22.976 57.9472 26.0155V45.2418C57.9472 48.2814 56.2888 51.1087 53.621 52.5931L36.6046 62.277C35.2346 63.0546 33.7926 63.408 32.2784 63.408C30.7643 63.408 29.2501 63.0546 27.9521 62.277L10.9358 52.6638C8.26801 51.1087 6.60962 48.3521 6.60962 45.3125V26.0155C6.60962 22.976 8.26801 20.1487 10.9358 18.6642L27.9521 8.98034C30.6201 7.49595 33.9368 7.49595 36.6046 8.98034ZM37.762 48.6975H44.3196V22.0024H37.762V38.5405L26.7943 22.0024H20.2367V48.6975H26.7943V32.3105L37.762 48.6975Z" fill="#FEC882"/>
</svg>
